<?xml version="1.0" encoding="UTF-8" standalone="no"?>
<!DOCTYPE svg PUBLIC "-//W3C//DTD SVG 1.1//EN" "http://www.w3.org/Graphics/SVG/1.1/DTD/svg11.dtd">
<svg xmlns="http://www.w3.org/2000/svg" version="1.1" viewBox="0.00 0.00 462.00 107.00">
<path fill="#3ab6ff" d="
  M 307.48 25.82
  Q 307.34 25.87 307.29 25.74
  L 307.29 25.74
  Q 307.24 25.60 307.37 25.54
  C 317.67 20.61 329.28 23.90 340.79 27.71
  Q 349.73 30.67 358.73 27.91
  C 370.61 24.27 371.83 15.78 369.17 4.96
  A 0.39 0.39 0.0 0 1 369.69 4.50
  C 373.57 5.94 376.45 12.16 377.16 15.88
  C 379.40 27.67 367.42 35.67 356.98 35.57
  C 341.63 35.44 329.97 23.70 314.25 24.26
  Q 311.49 24.36 307.48 25.82
  Z"
/>
<path fill="#3ab6ff" d="
  M 330.52 16.03
  Q 336.64 18.38 342.79 20.65
  C 351.00 23.68 357.93 21.84 365.20 17.65
  Q 366.71 16.78 365.58 18.10
  C 354.65 30.80 341.30 25.44 327.93 20.87
  Q 320.03 18.18 310.76 20.98
  Q 303.50 23.17 297.35 26.14
  Q 295.34 27.10 296.82 25.44
  C 304.92 16.35 318.52 11.41 330.52 16.03
  Z"
/>
<path fill="#004aab" d="
  M 298.51 30.97
  C 312.23 27.42 322.21 26.00 334.00 30.73
  Q 334.74 31.03 333.94 31.07
  Q 332.10 31.17 330.29 30.98
  C 322.91 30.19 314.94 32.48 307.72 33.89
  Q 297.00 35.99 287.43 32.83
  Q 285.34 32.14 284.32 31.91
  Q 283.98 31.83 284.25 31.62
  Q 284.72 31.27 285.05 31.31
  Q 293.47 32.27 298.51 30.97
  Z"
/>
<rect fill="#3ab6ff" x="265.44" y="29.75" width="12.06" height="58.24" rx="0.51"/>
<path fill="#004aab" d="
  M 20.72 78.69
  L 17.17 87.80
  A 0.31 0.31 0.0 0 1 16.88 88.00
  L 4.14 88.00
  A 0.31 0.31 0.0 0 1 3.85 87.58
  L 25.49 33.09
  A 0.31 0.31 0.0 0 1 25.78 32.89
  L 37.70 32.90
  A 0.31 0.31 0.0 0 1 37.99 33.10
  L 59.62 87.58
  A 0.31 0.31 0.0 0 1 59.33 88.00
  L 46.56 88.00
  A 0.31 0.31 0.0 0 1 46.27 87.80
  L 42.77 78.69
  A 0.31 0.31 0.0 0 0 42.48 78.49
  L 21.01 78.49
  A 0.31 0.31 0.0 0 0 20.72 78.69
  Z
  M 24.22 68.14
  A 0.35 0.35 0.0 0 0 24.55 68.62
  L 39.01 68.59
  A 0.35 0.35 0.0 0 0 39.34 68.12
  L 32.07 49.34
  A 0.35 0.35 0.0 0 0 31.42 49.34
  L 24.22 68.14
  Z"
/>
<path fill="#3ab6ff" d="
  M 251.97 59.91
  Q 260.55 64.79 259.67 73.76
  C 258.63 84.24 249.36 88.14 240.08 88.01
  C 231.92 87.90 223.75 88.05 215.58 87.96
  Q 215.13 87.95 215.13 87.49
  L 215.12 33.26
  Q 215.12 32.95 215.43 32.95
  Q 229.41 32.90 243.00 33.03
  Q 247.49 33.07 252.81 36.65
  C 260.45 41.81 259.43 54.10 251.94 59.34
  A 0.34 0.33 42.5 0 0 251.97 59.91
  Z
  M 227.48 43.27
  L 227.52 54.83
  A 0.44 0.44 0.0 0 0 227.96 55.27
  L 238.63 55.23
  A 6.65 5.79 -0.2 0 0 245.26 49.42
  L 245.26 48.56
  A 6.65 5.79 -0.2 0 0 238.59 42.79
  L 227.92 42.83
  A 0.44 0.44 0.0 0 0 227.48 43.27
  Z
  M 227.49 65.45
  L 227.53 77.51
  A 0.61 0.61 0.0 0 0 228.14 78.12
  L 239.49 78.08
  A 7.50 6.44 -0.2 0 0 246.97 71.62
  L 246.97 71.22
  A 7.50 6.44 -0.2 0 0 239.45 64.80
  L 228.10 64.84
  A 0.61 0.61 0.0 0 0 227.49 65.45
  Z"
/>
<path fill="#004aab" d="
  M 96.68 50.72
  L 97.48 47.69
  Q 97.75 46.67 98.80 46.67
  L 105.56 46.63
  Q 106.75 46.62 106.75 47.81
  L 106.75 103.26
  Q 106.75 103.78 106.24 103.78
  L 95.25 103.76
  Q 94.74 103.76 94.74 103.25
  L 94.75 85.48
  A 0.37 0.37 0.0 0 0 94.17 85.17
  C 84.42 91.81 70.82 89.99 64.07 79.92
  Q 59.28 72.78 61.16 62.79
  C 64.35 45.80 83.21 40.35 95.98 50.94
  Q 96.50 51.37 96.68 50.72
  Z
  M 95.27 67.30
  A 11.51 11.51 0.0 0 0 83.76 55.79
  A 11.51 11.51 0.0 0 0 72.25 67.30
  A 11.51 11.51 0.0 0 0 83.76 78.81
  A 11.51 11.51 0.0 0 0 95.27 67.30
  Z"
/>
<path fill="#004aab" d="
  M 188.84 63.40
  Q 192.81 63.58 191.27 59.92
  L 191.11 59.53
  Q 189.60 55.93 185.79 55.07
  Q 179.25 53.61 176.06 59.08
  Q 175.78 59.56 175.23 59.56
  L 165.00 59.61
  A 0.42 0.42 0.0 0 1 164.59 59.11
  C 166.99 47.51 177.95 44.25 188.50 45.98
  Q 197.95 47.53 201.59 55.28
  Q 203.02 58.33 203.14 63.96
  Q 203.38 75.79 203.24 87.02
  Q 203.22 88.00 202.24 88.00
  L 195.18 88.00
  Q 194.31 88.00 194.08 87.16
  L 193.17 83.83
  A 0.41 0.41 0.0 0 0 192.51 83.62
  C 185.94 89.25 176.70 90.18 169.24 86.96
  C 161.08 83.44 160.18 71.25 167.10 66.09
  C 172.34 62.19 183.02 63.14 188.84 63.40
  Z
  M 175.71 72.35
  C 172.39 75.19 175.22 79.31 178.75 79.95
  C 184.63 81.01 190.91 78.05 191.39 71.43
  Q 191.43 70.97 190.96 70.93
  C 187.54 70.65 178.38 70.07 175.71 72.35
  Z"
/>
<path fill="#3ab6ff" d="
  M 329.9097 67.4425
  A 23.40 21.96 0.3 0 1 306.3950 89.2797
  A 23.40 21.96 0.3 0 1 283.1103 67.1975
  A 23.40 21.96 0.3 0 1 306.6250 45.3603
  A 23.40 21.96 0.3 0 1 329.9097 67.4425
  Z
  M 318.03 67.29
  A 11.51 11.51 0.0 0 0 306.52 55.78
  A 11.51 11.51 0.0 0 0 295.01 67.29
  A 11.51 11.51 0.0 0 0 306.52 78.80
  A 11.51 11.51 0.0 0 0 318.03 67.29
  Z"
/>
<path fill="#3ab6ff" d="
  M 379.3900 67.3708
  A 23.38 21.96 0.1 0 1 355.9717 89.2900
  A 23.38 21.96 0.1 0 1 332.6300 67.2892
  A 23.38 21.96 0.1 0 1 356.0483 45.3700
  A 23.38 21.96 0.1 0 1 379.3900 67.3708
  Z
  M 367.18 66.15
  A 10.16 10.16 0.0 0 0 357.02 55.99
  L 355.02 55.99
  A 10.16 10.16 0.0 0 0 344.86 66.15
  L 344.86 68.45
  A 10.16 10.16 0.0 0 0 355.02 78.61
  L 357.02 78.61
  A 10.16 10.16 0.0 0 0 367.18 68.45
  L 367.18 66.15
  Z"
/>
<path fill="#3ab6ff" d="
  M 395.69 50.25
  C 402.88 43.64 414.63 43.94 421.05 51.72
  Q 421.40 52.15 421.79 51.76
  Q 428.81 44.88 437.95 45.68
  C 449.72 46.72 453.94 55.49 453.78 66.22
  C 453.67 73.31 453.77 80.41 453.71 87.51
  Q 453.70 88.00 453.22 88.00
  L 442.27 88.00
  Q 441.75 88.00 441.75 87.48
  Q 441.67 77.47 441.74 67.50
  C 441.76 64.66 441.54 61.39 440.00 59.04
  C 436.71 54.01 428.28 55.17 426.06 60.76
  Q 425.31 62.65 425.26 67.37
  Q 425.14 77.32 425.25 87.51
  A 0.48 0.48 0.0 0 1 424.77 88.00
  L 413.75 87.99
  A 0.37 0.37 0.0 0 1 413.38 87.61
  Q 413.39 76.97 413.29 66.42
  Q 413.25 61.85 412.15 59.76
  C 408.89 53.55 399.86 55.06 397.57 61.41
  Q 397.06 62.82 397.02 65.68
  Q 396.87 76.58 396.96 87.51
  Q 396.97 88.00 396.47 88.00
  L 385.51 88.00
  Q 385.03 87.99 385.03 87.51
  L 385.01 47.52
  Q 385.01 46.68 385.85 46.68
  L 392.91 46.72
  Q 393.89 46.72 394.18 47.67
  L 394.92 50.04
  Q 395.14 50.75 395.69 50.25
  Z"
/>
<path fill="#004aab" d="
  M 145.69 83.99
  A 0.29 0.29 0.0 0 0 145.22 83.85
  Q 138.55 89.86 130.08 88.99
  C 119.36 87.89 114.60 79.81 114.63 69.75
  Q 114.68 58.48 114.76 47.20
  Q 114.76 46.68 115.28 46.68
  L 126.20 46.64
  Q 126.73 46.64 126.73 47.17
  Q 126.69 59.12 126.78 70.98
  C 126.86 80.15 139.69 81.51 142.87 73.30
  Q 143.65 71.28 143.70 66.27
  Q 143.79 56.75 143.73 47.20
  A 0.54 0.54 0.0 0 1 144.27 46.66
  L 155.20 46.65
  Q 155.76 46.65 155.76 47.20
  L 155.76 87.50
  Q 155.76 88.00 155.25 88.00
  L 147.28 88.00
  Q 146.80 88.00 146.67 87.53
  L 145.69 83.99
  Z"
/>
</svg>
