<svg xmlns="http://www.w3.org/2000/svg" xmlns:xlink="http://www.w3.org/1999/xlink" width="500" zoomAndPan="magnify" viewBox="0 0 375 374.999991" height="500" preserveAspectRatio="xMidYMid meet" version="1.0"><defs><clipPath id="a7ba84c81b"><path d="M 47.792969 209 L 201 209 L 201 231 L 47.792969 231 Z M 47.792969 209 " clip-rule="nonzero"/></clipPath><clipPath id="10c02c4414"><path d="M 117 141.046875 L 323 141.046875 L 323 233 L 117 233 Z M 117 141.046875 " clip-rule="nonzero"/></clipPath></defs><g clip-path="url(#a7ba84c81b)"><path fill="#004aad" d="M 200.453125 220.253906 C 173.285156 214.214844 149.5 221.597656 123.214844 227.289062 C 97.335938 232.886719 72.070312 229.664062 47.792969 219.148438 C 74.960938 225.195312 98.742188 217.804688 125.03125 212.109375 C 150.910156 206.515625 176.175781 209.738281 200.453125 220.253906 " fill-opacity="1" fill-rule="nonzero"/></g><path fill="#38b6ff" d="M 85.378906 205.503906 C 109.796875 178.316406 148.824219 161.878906 184.363281 174.199219 C 201.625 180.183594 217.769531 189.90625 235.992188 192.882812 C 255.714844 196.105469 273.804688 188.863281 290.359375 178.722656 L 291.164062 179.691406 C 279.410156 192.765625 263.898438 202.648438 246.183594 204.753906 C 226.785156 207.050781 208.382812 199.875 190.582031 193.171875 C 174.574219 187.132812 160.125 183.363281 142.917969 186.542969 C 123.148438 190.1875 104.425781 198.445312 86.140625 206.515625 L 85.378906 205.503906 " fill-opacity="1" fill-rule="nonzero"/><g clip-path="url(#10c02c4414)"><path fill="#38b6ff" d="M 117.316406 205.0625 C 133.828125 192.515625 160.878906 195.429688 179.453125 199.125 C 192.871094 201.796875 205.429688 206.675781 218.492188 210.5625 C 238.601562 216.535156 261.398438 215.496094 280.109375 205.484375 C 288.789062 200.84375 296.277344 194.148438 299.984375 184.824219 C 305.570312 170.785156 301.378906 156.066406 298.855469 141.898438 L 299.886719 141.179688 C 317.742188 152.5 327.28125 175.382812 320.726562 195.804688 C 313.328125 218.902344 289.488281 231.382812 266.425781 232.371094 C 232.132812 233.855469 205.246094 213.046875 173.628906 204.28125 C 157.289062 199.746094 133.507812 195.859375 118.113281 206.050781 L 117.316406 205.0625 " fill-opacity="1" fill-rule="nonzero"/></g></svg>